<svg width="20" height="20" viewBox="0 0 20 20" fill="none" xmlns="http://www.w3.org/2000/svg">
<path d="M0 2.72727C0 2.00396 0.287337 1.31026 0.7988 0.7988C1.31026 0.287337 2.00396 0 2.72727 0H13.0303C13.7536 0 14.4473 0.287337 14.9588 0.7988C15.4702 1.31026 15.7576 2.00396 15.7576 2.72727V12.1212H20V16.0606C20 17.1054 19.585 18.1074 18.8462 18.8462C18.1074 19.585 17.1054 20 16.0606 20H3.93939C2.8946 20 1.8926 19.585 1.15382 18.8462C0.415042 18.1074 0 17.1054 0 16.0606V2.72727ZM15.7576 13.9394V18.1818H16.0606C16.6232 18.1818 17.1627 17.9583 17.5605 17.5605C17.9583 17.1627 18.1818 16.6232 18.1818 16.0606V13.9394H15.7576ZM13.9394 18.1818V2.72727C13.9394 2.48617 13.8436 2.25494 13.6731 2.08445C13.5026 1.91396 13.2714 1.81818 13.0303 1.81818H2.72727C2.48617 1.81818 2.25494 1.91396 2.08445 2.08445C1.91396 2.25494 1.81818 2.48617 1.81818 2.72727V16.0606C1.81818 17.2315 2.76848 18.1818 3.93939 18.1818H13.9394ZM3.63636 5.75758C3.63636 5.51647 3.73214 5.28524 3.90263 5.11475C4.07312 4.94426 4.30435 4.84848 4.54545 4.84848H11.2121C11.4532 4.84848 11.6845 4.94426 11.8549 5.11475C12.0254 5.28524 12.1212 5.51647 12.1212 5.75758C12.1212 5.99868 12.0254 6.22991 11.8549 6.4004C11.6845 6.57089 11.4532 6.66667 11.2121 6.66667H4.54545C4.30435 6.66667 4.07312 6.57089 3.90263 6.4004C3.73214 6.22991 3.63636 5.99868 3.63636 5.75758ZM3.63636 10C3.63636 9.75889 3.73214 9.52766 3.90263 9.35718C4.07312 9.18669 4.30435 9.09091 4.54545 9.09091H11.2121C11.4532 9.09091 11.6845 9.18669 11.8549 9.35718C12.0254 9.52766 12.1212 9.75889 12.1212 10C12.1212 10.2411 12.0254 10.4723 11.8549 10.6428C11.6845 10.8133 11.4532 10.9091 11.2121 10.9091H4.54545C4.30435 10.9091 4.07312 10.8133 3.90263 10.6428C3.73214 10.4723 3.63636 10.2411 3.63636 10ZM3.63636 14.2424C3.63636 14.0013 3.73214 13.7701 3.90263 13.5996C4.07312 13.4291 4.30435 13.3333 4.54545 13.3333H7.57576C7.81686 13.3333 8.04809 13.4291 8.21858 13.5996C8.38907 13.7701 8.48485 14.0013 8.48485 14.2424C8.48485 14.4835 8.38907 14.7148 8.21858 14.8853C8.04809 15.0557 7.81686 15.1515 7.57576 15.1515H4.54545C4.30435 15.1515 4.07312 15.0557 3.90263 14.8853C3.73214 14.7148 3.63636 14.4835 3.63636 14.2424Z" fill="currentColor"/>
</svg>
