<svg width="20" height="20" viewBox="0 0 20 20" fill="none" xmlns="http://www.w3.org/2000/svg">
<path d="M16.8402 0L20.0001 3.15989L17.5912 5.56983L14.4313 2.40994L16.8402 0ZM5.2666 14.7335H8.42649L16.1019 7.05814L12.942 3.89825L5.2666 11.5736V14.7335Z" fill="currentColor"/>
<path d="M16.8527 17.8935H5.4329C5.40552 17.8935 5.37708 17.904 5.34969 17.904C5.31493 17.904 5.28018 17.8946 5.24436 17.8935H2.10659V3.14736H9.31851L11.4251 1.04077H2.10659C0.944807 1.04077 0 1.98453 0 3.14736V17.8935C0 19.0564 0.944807 20.0001 2.10659 20.0001H16.8527C17.4114 20.0001 17.9473 19.7782 18.3423 19.3831C18.7374 18.988 18.9593 18.4522 18.9593 17.8935V8.76354L16.8527 10.8701V17.8935Z" fill="currentColor"/>
</svg>
