<svg width="20" height="20" viewBox="0 0 20 20" fill="none" xmlns="http://www.w3.org/2000/svg">
<path d="M1.21905 0L0 1.20952L7.51429 8.72381V13.4667C7.47619 13.7429 7.57143 14.0381 7.79048 14.2571L11.6095 18.0762C11.981 18.4476 12.581 18.4476 12.9524 18.0762C13.1714 17.8762 13.2667 17.5714 13.2286 17.2857V14.4381L18.7905 20L20 18.7905L13.2286 12.019V12.0095L11.3238 10.1143L9.41905 8.2L2.89524 1.68571L1.21905 0ZM4.85714 1.20952L6.75238 3.11429H15.0952L11.4286 7.79048L13.2286 9.59048V8.59048L17.7905 2.75238C17.9451 2.55384 18.0149 2.30215 17.9846 2.05231C17.9542 1.80248 17.8263 1.57481 17.6286 1.41905C17.4476 1.28571 17.2476 1.20952 17.0381 1.20952H4.85714ZM9.41905 10.6286L11.3238 12.5333V15.0952L9.41905 13.1905V10.6286Z"/>
</svg>
