<svg width="20" height="20" viewBox="0 0 20 20" fill="none" xmlns="http://www.w3.org/2000/svg">
<path d="M19.5853 10.293L11.0611 1.77327L10.4898 1.20191C10.3596 1.07258 10.1835 1 10 1C9.81654 1 9.64048 1.07258 9.5103 1.20191L0.414826 10.293C0.281429 10.4258 0.176004 10.5841 0.104772 10.7584C0.0335409 10.9327 -0.002053 11.1195 9.14394e-05 11.3077C0.00891557 12.0843 0.655283 12.7042 1.43181 12.7042H2.36937V19.8892H17.6307V12.7042H18.5881C18.9654 12.7042 19.3205 12.5564 19.5875 12.2894C19.7189 12.1584 19.823 12.0026 19.8938 11.8311C19.9647 11.6596 20.0007 11.4757 20 11.2901C20 10.9151 19.8522 10.5599 19.5853 10.293ZM11.2354 18.3009H8.76466V13.8006H11.2354V18.3009ZM16.0424 11.1158V18.3009H12.6473V13.2711C12.6473 12.7836 12.2524 12.3887 11.7649 12.3887H8.23521C7.74768 12.3887 7.3528 12.7836 7.3528 13.2711V18.3009H3.95771V11.1158H1.83992L10.0022 2.96012L10.5118 3.46971L18.1624 11.1158H16.0424Z" fill="currentColor"/>
</svg>
