<svg width="20" height="20" viewBox="0 0 20 20" fill="none" xmlns="http://www.w3.org/2000/svg">
    <path d="M4.25 0C3.65326 0 3.08097 0.237053 2.65901 0.65901C2.23705 1.08097 2 1.65326 2 2.25V17.75C2 18.3467 2.23705 18.919 2.65901 19.341C3.08097 19.7629 3.65326 20 4.25 20H11.75C12.3431 20 12.9123 19.7659 13.3336 19.3484C13.755 18.931 13.9945 18.3641 14 17.771V16.251C14 16.0521 13.921 15.8613 13.7803 15.7207C13.6397 15.58 13.4489 15.501 13.25 15.501C12.796 15.501 12.51 15.378 12.313 15.219C12.105 15.052 11.933 14.794 11.803 14.43C11.53 13.675 11.5 12.68 11.5 11.75C11.5 11.5599 11.4278 11.3769 11.298 11.238L11.134 11.061C11.0801 11.0007 11.0233 10.943 10.964 10.888C10.89 10.818 10.664 10.603 9.78 9.72C9.312 9.251 9.052 8.855 8.967 8.552C8.93292 8.44698 8.92773 8.33472 8.952 8.227C8.98931 8.10276 9.05985 7.99107 9.156 7.904C9.24273 7.80792 9.35408 7.73738 9.478 7.7C9.58547 7.67609 9.69741 7.68162 9.802 7.716C10.105 7.801 10.501 8.062 10.97 8.531C11.51 9.071 12.022 9.577 12.481 10.031C13.241 10.783 13.855 11.391 14.201 11.761C14.3367 11.9066 14.5246 11.9924 14.7235 11.9994C14.9224 12.0064 15.1159 11.9342 15.2615 11.7985C15.4071 11.6628 15.4929 11.4749 15.4999 11.276C15.5069 11.0771 15.4347 10.8836 15.299 10.738C14.873 10.2928 14.4396 9.85472 13.999 9.424V6.06L15.841 8.902C16.263 9.324 16.5 9.896 16.5 10.492V19.25C16.5 19.4489 16.579 19.6397 16.7197 19.7803C16.8603 19.921 17.0511 20 17.25 20C17.4489 20 17.6397 19.921 17.7803 19.7803C17.921 19.6397 18 19.4489 18 19.25V10.493C18.0001 10.0005 17.9032 9.51282 17.7148 9.05779C17.5264 8.60276 17.2502 8.18929 16.902 7.841L14 3.939V2.249C13.9997 1.65244 13.7626 1.0804 13.3406 0.658656C12.9187 0.236916 12.3466 -5.89199e-08 11.75 0H4.25ZM10.392 14.94C10.488 15.208 10.613 15.474 10.775 15.722C10.3931 15.9056 10.0707 16.1934 9.84518 16.5522C9.61961 16.911 9.49996 17.3262 9.5 17.75V18.5H6.5V17.75C6.5 17.1533 6.26295 16.581 5.84099 16.159C5.41903 15.7371 4.84674 15.5 4.25 15.5H3.5V4.5H4.25C4.84674 4.5 5.41903 4.26295 5.84099 3.84099C6.26295 3.41903 6.5 2.84674 6.5 2.25V1.5H9.5V2.25C9.5 2.84674 9.73705 3.41903 10.159 3.84099C10.581 4.26295 11.1533 4.5 11.75 4.5H12.5V7.938L12.03 7.47C11.5 6.939 10.882 6.462 10.21 6.272C9.85077 6.16562 9.46967 6.15699 9.106 6.247C8.88038 6.30545 8.66633 6.40182 8.473 6.532C7.90762 6.45488 7.33197 6.51717 6.79617 6.71342C6.26037 6.90968 5.78068 7.23397 5.39888 7.65803C5.01708 8.08209 4.74476 8.59307 4.60562 9.14646C4.46648 9.69985 4.46476 10.2789 4.60059 10.8331C4.73643 11.3873 5.0057 11.8999 5.38497 12.3262C5.76423 12.7525 6.24198 13.0797 6.7766 13.2791C7.31122 13.4786 7.88649 13.5443 8.45232 13.4705C9.01815 13.3968 9.55736 13.1858 10.023 12.856C10.061 13.54 10.154 14.283 10.392 14.94ZM6 10C5.99985 9.56447 6.14187 9.1408 6.40449 8.79335C6.6671 8.44591 7.03595 8.19368 7.455 8.075C7.41644 8.37087 7.43959 8.67152 7.523 8.958C7.713 9.631 8.188 10.249 8.72 10.781L9.385 11.443C9.10214 11.7145 8.7457 11.8969 8.36001 11.9675C7.97432 12.0381 7.57639 11.9937 7.2157 11.84C6.85502 11.6862 6.54748 11.4298 6.33133 11.1027C6.11519 10.7755 5.99997 10.3921 6 10ZM3.5 2.25C3.5 2.05109 3.57902 1.86032 3.71967 1.71967C3.86032 1.57902 4.05109 1.5 4.25 1.5H5V2.25C5 2.44891 4.92098 2.63968 4.78033 2.78033C4.63968 2.92098 4.44891 3 4.25 3H3.5V2.25ZM11 1.5H11.75C11.9489 1.5 12.1397 1.57902 12.2803 1.71967C12.421 1.86032 12.5 2.05109 12.5 2.25V3H11.75C11.5511 3 11.3603 2.92098 11.2197 2.78033C11.079 2.63968 11 2.44891 11 2.25V1.5ZM12.5 17V17.75C12.5 17.9489 12.421 18.1397 12.2803 18.2803C12.1397 18.421 11.9489 18.5 11.75 18.5H11V17.75C11 17.5511 11.079 17.3603 11.2197 17.2197C11.3603 17.079 11.5511 17 11.75 17H12.5ZM5 18.5H4.25C4.05109 18.5 3.86032 18.421 3.71967 18.2803C3.57902 18.1397 3.5 17.9489 3.5 17.75V17H4.25C4.44891 17 4.63968 17.079 4.78033 17.2197C4.92098 17.3603 5 17.5511 5 17.75V18.5Z" fill="#1EC19A"/>
</svg>