<svg width="20" height="20" viewBox="0 0 20 20" fill="none" xmlns="http://www.w3.org/2000/svg">
<path d="M16.8199 0.819876C16.8199 0.602431 16.7335 0.393893 16.5797 0.240136C16.426 0.0863795 16.2174 0 16 0C15.7826 0 15.574 0.0863795 15.4203 0.240136C15.2665 0.393893 15.1801 0.602431 15.1801 0.819876V3.18012H12.8199C12.6024 3.18012 12.3939 3.2665 12.2401 3.42026C12.0864 3.57402 12 3.78256 12 4C12 4.21744 12.0864 4.42598 12.2401 4.57974C12.3939 4.7335 12.6024 4.81988 12.8199 4.81988H15.1801V7.18012C15.1801 7.39757 15.2665 7.60611 15.4203 7.75986C15.574 7.91362 15.7826 8 16 8C16.2174 8 16.426 7.91362 16.5797 7.75986C16.7335 7.60611 16.8199 7.39757 16.8199 7.18012V4.81988H19.1801C19.3976 4.81988 19.6061 4.7335 19.7599 4.57974C19.9136 4.42598 20 4.21744 20 4C20 3.78256 19.9136 3.57402 19.7599 3.42026C19.6061 3.2665 19.3976 3.18012 19.1801 3.18012H16.8199V0.819876Z" fill="currentColor"/>
<path d="M7.5 5C6.67591 5 5.87033 5.23151 5.18512 5.66525C4.49992 6.09899 3.96587 6.71549 3.6505 7.43678C3.33514 8.15806 3.25262 8.95175 3.41339 9.71746C3.57417 10.4832 3.971 11.1865 4.55372 11.7386C5.13644 12.2906 5.87887 12.6666 6.68712 12.8189C7.49538 12.9712 8.33316 12.893 9.09451 12.5943C9.85587 12.2955 10.5066 11.7896 10.9645 11.1404C11.4223 10.4913 11.6667 9.72808 11.6667 8.94737C11.6667 7.90046 11.2277 6.89643 10.4463 6.15616C9.66488 5.41588 8.60507 5 7.5 5ZM7.5 11.3158C7.00555 11.3158 6.5222 11.1769 6.11107 10.9166C5.69995 10.6564 5.37952 10.2865 5.1903 9.85372C5.00108 9.42095 4.95157 8.94474 5.04804 8.48531C5.1445 8.02588 5.3826 7.60387 5.73223 7.27264C6.08186 6.94141 6.52732 6.71584 7.01227 6.62446C7.49723 6.53307 7.99989 6.57997 8.45671 6.75923C8.91352 6.93849 9.30397 7.24206 9.57867 7.63154C9.85338 8.02103 10 8.47894 10 8.94737C10 9.57551 9.73661 10.1779 9.26777 10.6221C8.79893 11.0663 8.16304 11.3158 7.5 11.3158ZM15 20V19.2105C15 17.7449 14.3854 16.3392 13.2915 15.3028C12.1975 14.2664 10.7138 13.6842 9.16667 13.6842H5.83333C4.28624 13.6842 2.80251 14.2664 1.70854 15.3028C0.614581 16.3392 0 17.7449 0 19.2105V20H1.66667V19.2105C1.66667 18.1636 2.10565 17.1596 2.88706 16.4193C3.66846 15.679 4.72826 15.2632 5.83333 15.2632H9.16667C10.2717 15.2632 11.3315 15.679 12.1129 16.4193C12.8943 17.1596 13.3333 18.1636 13.3333 19.2105V20H15Z" fill="currentColor"/>
</svg>
