<svg width="20" height="20" viewBox="0 0 20 20" fill="none" xmlns="http://www.w3.org/2000/svg">
<path d="M10 0C8.90121 0 7.82711 0.308679 6.9135 0.887002C5.99989 1.46533 5.28782 2.28732 4.86734 3.24903C4.44685 4.21075 4.33683 5.269 4.55119 6.28995C4.76556 7.3109 5.29467 8.24871 6.07163 8.98477C6.84859 9.72084 7.83849 10.2221 8.91617 10.4252C9.99384 10.6283 11.1109 10.524 12.126 10.1257C13.1412 9.72733 14.0088 9.05273 14.6193 8.18721C15.2297 7.32169 15.5556 6.30411 15.5556 5.26316C15.5556 3.86728 14.9702 2.52858 13.9284 1.54154C12.8865 0.55451 11.4734 0 10 0ZM10 8.42105C9.34073 8.42105 8.69626 8.23585 8.1481 7.88885C7.59994 7.54186 7.17269 7.04866 6.9204 6.47163C6.66811 5.8946 6.6021 5.25965 6.73072 4.64708C6.85933 4.03451 7.1768 3.47183 7.64298 3.03019C8.10915 2.58855 8.7031 2.28779 9.3497 2.16594C9.9963 2.04409 10.6665 2.10663 11.2756 2.34564C11.8847 2.58466 12.4053 2.98941 12.7716 3.50873C13.1378 4.02804 13.3333 4.63859 13.3333 5.26316C13.3333 6.10068 12.9821 6.90391 12.357 7.49613C11.7319 8.08835 10.8841 8.42105 10 8.42105ZM20 20V18.9474C20 16.9931 19.1806 15.119 17.7219 13.7371C16.2633 12.3553 14.285 11.5789 12.2222 11.5789H7.77778C5.71498 11.5789 3.73667 12.3553 2.27806 13.7371C0.819442 15.119 0 16.9931 0 18.9474V20H2.22222V18.9474C2.22222 17.5515 2.80754 16.2128 3.84941 15.2258C4.89128 14.2387 6.30435 13.6842 7.77778 13.6842H12.2222C13.6956 13.6842 15.1087 14.2387 16.1506 15.2258C17.1925 16.2128 17.7778 17.5515 17.7778 18.9474V20H20Z" fill="currentColor"/>
</svg>
