<svg width="20" height="20" viewBox="0 0 20 20" fill="none" xmlns="http://www.w3.org/2000/svg">
<path d="M4.04762 1C3.60559 1 3.18167 1.17559 2.86911 1.48816C2.55655 1.80072 2.38095 2.22464 2.38095 2.66667V5.04762C2.38095 5.96762 3.12762 6.71429 4.04762 6.71429H6.42857C6.8706 6.71429 7.29452 6.53869 7.60708 6.22613C7.91964 5.91357 8.09524 5.48965 8.09524 5.04762V2.66667C8.09524 2.22464 7.91964 1.80072 7.60708 1.48816C7.29452 1.17559 6.8706 1 6.42857 1H4.04762ZM10.9524 2.66667C10.9524 1.74667 11.699 1 12.619 1H15C15.92 1 16.6667 1.74667 16.6667 2.66667V5.04762C16.6667 5.48965 16.4911 5.91357 16.1785 6.22613C15.866 6.53869 15.442 6.71429 15 6.71429H12.619C12.177 6.71429 11.7531 6.53869 11.4405 6.22613C11.128 5.91357 10.9524 5.48965 10.9524 5.04762V2.66667ZM12.619 2.42857C12.5559 2.42857 12.4953 2.45366 12.4507 2.49831C12.406 2.54296 12.381 2.60352 12.381 2.66667V5.04762C12.381 5.17905 12.4876 5.28571 12.619 5.28571H15C15.0631 5.28571 15.1237 5.26063 15.1684 5.21598C15.213 5.17133 15.2381 5.11077 15.2381 5.04762V2.66667C15.2381 2.60352 15.213 2.54296 15.1684 2.49831C15.1237 2.45366 15.0631 2.42857 15 2.42857H12.619ZM4.7619 14.3333C5.14079 14.3333 5.50415 14.1828 5.77206 13.9149C6.03997 13.647 6.19048 13.2836 6.19048 12.9048C6.19048 12.5259 6.03997 12.1625 5.77206 11.8946C5.50415 11.6267 5.14079 11.4762 4.7619 11.4762C4.38302 11.4762 4.01966 11.6267 3.75175 11.8946C3.48384 12.1625 3.33333 12.5259 3.33333 12.9048C3.33333 13.2836 3.48384 13.647 3.75175 13.9149C4.01966 14.1828 4.38302 14.3333 4.7619 14.3333ZM4.28571 10.0476H10.2952C10.8839 9.43369 11.5925 8.94742 12.3771 8.61905H4.28571C3.14907 8.61905 2.05898 9.07058 1.25526 9.8743C0.451529 10.678 0 11.7681 0 12.9048C0 14.0414 0.451529 15.1315 1.25526 15.9352C2.05898 16.7389 3.14907 17.1905 4.28571 17.1905H9.26857C9.03286 16.7382 8.85435 16.2583 8.73714 15.7619H4.28571C3.52795 15.7619 2.80123 15.4609 2.26541 14.9251C1.72959 14.3892 1.42857 13.6625 1.42857 12.9048C1.42857 12.147 1.72959 11.4203 2.26541 10.8845C2.80123 10.3486 3.52795 10.0476 4.28571 10.0476ZM8.09524 12.9048C8.09524 13.3333 8.28286 13.7162 8.58095 13.9781C8.62956 13.1144 8.85964 12.2707 9.25619 11.5019C8.9297 11.5642 8.63514 11.7383 8.42323 11.9944C8.21133 12.2505 8.09534 12.5724 8.09524 12.9048ZM20 14.3333C20 15.7226 19.4481 17.0549 18.4658 18.0372C17.4835 19.0196 16.1511 19.5714 14.7619 19.5714C13.3727 19.5714 12.0403 19.0196 11.058 18.0372C10.0757 17.0549 9.52381 15.7226 9.52381 14.3333C9.52381 12.9441 10.0757 11.6118 11.058 10.6294C12.0403 9.64711 13.3727 9.09524 14.7619 9.09524C16.1511 9.09524 17.4835 9.64711 18.4658 10.6294C19.4481 11.6118 20 12.9441 20 14.3333ZM17.9562 12.0914C17.912 12.0471 17.8594 12.0119 17.8016 11.9879C17.7437 11.9639 17.6817 11.9515 17.619 11.9515C17.5564 11.9515 17.4944 11.9639 17.4365 11.9879C17.3787 12.0119 17.3261 12.0471 17.2819 12.0914L13.8095 15.5648L12.2419 13.9962C12.1525 13.9068 12.0312 13.8565 11.9048 13.8565C11.7783 13.8565 11.657 13.9068 11.5676 13.9962C11.4782 14.0856 11.428 14.2069 11.428 14.3333C11.428 14.4598 11.4782 14.5811 11.5676 14.6705L13.4724 16.5752C13.5166 16.6196 13.5692 16.6548 13.627 16.6788C13.6849 16.7028 13.7469 16.7151 13.8095 16.7151C13.8722 16.7151 13.9342 16.7028 13.992 16.6788C14.0499 16.6548 14.1024 16.6196 14.1467 16.5752L17.9562 12.7657C18.0005 12.7215 18.0357 12.6689 18.0597 12.6111C18.0837 12.5532 18.0961 12.4912 18.0961 12.4286C18.0961 12.3659 18.0837 12.3039 18.0597 12.2461C18.0357 12.1882 18.0005 12.1357 17.9562 12.0914Z" fill="currentColor"/>
</svg>
