<svg width="20" height="20" viewBox="0 0 20 20" fill="none" xmlns="http://www.w3.org/2000/svg">
<path fill-rule="evenodd" clip-rule="evenodd" d="M9.12 18.866L8 20L6.66667 18.65L5.33333 20L4 18.65L2.66667 20L1.33333 18.65L0 20V0L1.33333 1.35L2.66667 0L4 1.35L5.33333 0L6.66667 1.35L8 0L9.33333 1.35L10.6667 0L12 1.35L13.3333 0L14.6667 1.35L16 0V10.215C15.44 10.017 14.8444 9.9 14.2222 9.9V2.619H1.77778V17.381H8.88889C8.88889 17.894 8.97778 18.398 9.12 18.866ZM9.39153 11.8175C8.93457 12.3119 8.41396 12.8751 8.2 13.5H2.66667V11.7H9.5C9.46438 11.7387 9.42816 11.7779 9.39153 11.8175ZM2.66667 9.9V8.1H13.3333V9.9H2.66667ZM2.66667 6.3V4.5H13.3333V6.3H2.66667ZM19.8408 15.3413C19.3995 14.2169 18.6379 13.2468 17.6505 12.5511C16.663 11.8555 15.4931 11.4649 14.2858 11.4277C13.0785 11.4649 11.9086 11.8555 10.9212 12.5511C9.93375 13.2468 9.17216 14.2169 8.73082 15.3413L8.57153 15.7134L8.73082 16.0856C9.17216 17.21 9.93375 18.1801 10.9212 18.8758C11.9086 19.5714 13.0785 19.962 14.2858 19.9992C15.4931 19.962 16.663 19.5714 17.6505 18.8758C18.6379 18.1801 19.3995 17.21 19.8408 16.0856L20.0001 15.7134L19.8408 15.3413ZM14.2858 18.5706C13.7207 18.5706 13.1683 18.403 12.6985 18.0891C12.2286 17.7751 11.8624 17.3289 11.6462 16.8068C11.4299 16.2848 11.3733 15.7103 11.4836 15.156C11.5938 14.6018 11.8659 14.0927 12.2655 13.6931C12.6651 13.2936 13.1742 13.0214 13.7284 12.9112C14.2826 12.801 14.8571 12.8575 15.3792 13.0738C15.9013 13.29 16.3475 13.6563 16.6614 14.1261C16.9754 14.596 17.143 15.1484 17.143 15.7134C17.142 16.4709 16.8407 17.1971 16.3051 17.7327C15.7695 18.2683 15.0433 18.5696 14.2858 18.5706ZM14.2858 17.142C15.0748 17.142 15.7144 16.5024 15.7144 15.7134C15.7144 14.9245 15.0748 14.2849 14.2858 14.2849C13.4968 14.2849 12.8572 14.9245 12.8572 15.7134C12.8572 16.5024 13.4968 17.142 14.2858 17.142Z" fill="#008DFD"/>
</svg>
