<svg width="20" height="20" viewBox="0 0 20 20" fill="none" xmlns="http://www.w3.org/2000/svg">
<path fill-rule="evenodd" clip-rule="evenodd" d="M8.70099 0.363316C9.11404 0.125296 9.5824 0 10.0591 0C10.5359 0 11.0042 0.125286 11.4173 0.363286C11.4179 0.36367 11.4186 0.364055 11.4193 0.36444L17.7582 3.98668C18.1713 4.2252 18.5144 4.56815 18.7532 4.98115C18.9919 5.39414 19.1178 5.86265 19.1183 6.33967V13.586C19.1178 14.0631 18.9919 14.5316 18.7532 14.9446C18.5144 15.3576 18.1713 15.7005 17.7582 15.939L17.7547 15.941L11.4193 19.5613C11.4186 19.5617 11.4179 19.5621 11.4172 19.5625C11.0041 19.8004 10.5358 19.9257 10.0591 19.9257C9.58243 19.9257 9.1141 19.8004 8.70108 19.5624C8.7004 19.562 8.69972 19.5617 8.69904 19.5613L2.36362 15.941L2.36011 15.939C1.94699 15.7005 1.60386 15.3575 1.36514 14.9446C1.12641 14.5316 1.00049 14.0631 1 13.586V6.33967C1.00049 5.86265 1.12641 5.39414 1.36514 4.98115C1.60386 4.56815 1.94699 4.2252 2.36011 3.98669L2.36361 3.98466L8.70099 0.363316ZM10.0591 1.81818C9.90081 1.81818 9.74526 1.85986 9.60813 1.93903L9.60462 1.94106L3.2692 5.56128C3.2687 5.56156 3.26821 5.56185 3.26772 5.56214C3.13139 5.64119 3.01814 5.75459 2.93926 5.89105C2.86017 6.02788 2.81841 6.1831 2.81818 6.34114V13.5846C2.81841 13.7426 2.86016 13.8978 2.93926 14.0347C3.01815 14.1711 3.13142 14.2845 3.26777 14.3636C3.26824 14.3639 3.26872 14.3641 3.2692 14.3644L9.60813 17.9867C9.74526 18.0658 9.90081 18.1075 10.0591 18.1075C10.2175 18.1075 10.373 18.0658 10.5102 17.9867L10.5137 17.9847L16.8491 14.3644C16.8496 14.3641 16.8501 14.3639 16.8505 14.3636C16.9869 14.2845 17.1001 14.1711 17.179 14.0347C17.2582 13.8977 17.2999 13.7423 17.3001 13.5842V6.34154C17.2999 6.18335 17.2582 6.02799 17.179 5.89105C17.1002 5.75459 16.9869 5.6412 16.8506 5.56214C16.8501 5.56185 16.8496 5.56156 16.8491 5.56128L10.5102 1.93904C10.373 1.85987 10.2175 1.81818 10.0591 1.81818Z" fill="currentColor"/>
<path fill-rule="evenodd" clip-rule="evenodd" d="M5.19712 2.45371C5.4483 2.01898 6.00434 1.87018 6.43907 2.12136L10.0593 4.21305L13.6795 2.12136C14.1143 1.87018 14.6703 2.01898 14.9215 2.45371C15.1727 2.88844 15.0239 3.44448 14.5891 3.69566L10.5141 6.05012C10.2327 6.21271 9.8859 6.21271 9.6045 6.05012L5.52947 3.69566C5.09474 3.44448 4.94594 2.88844 5.19712 2.45371ZM1.36683 4.9436C1.61823 4.509 2.17435 4.36049 2.60895 4.61189L10.0593 8.92166L17.5096 4.61189C17.9443 4.36049 18.5004 4.509 18.7518 4.9436C19.0032 5.3782 18.8547 5.93432 18.4201 6.18572L10.9684 10.4963V19.0909C10.9684 19.593 10.5614 20 10.0593 20C9.55722 20 9.15021 19.593 9.15021 19.0909V10.4963L1.69854 6.18572C1.26394 5.93432 1.11543 5.3782 1.36683 4.9436ZM1.12209 9.50804C1.37327 9.07331 1.92931 8.92451 2.36404 9.17569L6.43907 11.5301C6.7202 11.6926 6.89336 11.9926 6.89336 12.3173V17.0172C6.89336 17.5192 6.48635 17.9263 5.98427 17.9263C5.48219 17.9263 5.07518 17.5192 5.07518 17.0172V12.842L1.45444 10.75C1.01971 10.4988 0.870914 9.94277 1.12209 9.50804ZM18.9965 9.50804C19.2477 9.94277 19.0989 10.4988 18.6642 10.75L15.0434 12.842V17.0172C15.0434 17.5192 14.6364 17.9263 14.1343 17.9263C13.6322 17.9263 13.2252 17.5192 13.2252 17.0172V12.3173C13.2252 11.9926 13.3984 11.6926 13.6795 11.5301L17.7546 9.17569C18.1893 8.92451 18.7453 9.07331 18.9965 9.50804Z" fill="currentColor"/>
</svg>
