<svg width="20" height="20" viewBox="0 0 20 20" fill="none" xmlns="http://www.w3.org/2000/svg">
<path d="M12.28 5.80189e-08C12.6998 0.00010886 13.1088 0.132286 13.4493 0.377808C13.7898 0.62333 14.0444 0.96975 14.177 1.368L14.72 3H18C18.2652 3 18.5196 3.10536 18.7071 3.29289C18.8946 3.48043 19 3.73478 19 4C19 4.26522 18.8946 4.51957 18.7071 4.70711C18.5196 4.89464 18.2652 5 18 5L17.997 5.071L17.13 17.214C17.0759 17.9706 16.7372 18.6786 16.182 19.1956C15.6269 19.7125 14.8965 19.9999 14.138 20H5.862C5.10346 19.9999 4.37311 19.7125 3.81797 19.1956C3.26283 18.6786 2.92411 17.9706 2.87 17.214L2.003 5.07C2.00119 5.04671 2.00019 5.02336 2 5C1.73478 5 1.48043 4.89464 1.29289 4.70711C1.10536 4.51957 1 4.26522 1 4C1 3.73478 1.10536 3.48043 1.29289 3.29289C1.48043 3.10536 1.73478 3 2 3H5.28L5.823 1.368C5.9557 0.969588 6.21043 0.623052 6.5511 0.377515C6.89176 0.131978 7.30107 -0.000101061 7.721 5.80189e-08H12.279H12.28ZM15.997 5H4.003L4.865 17.071C4.88295 17.3232 4.99577 17.5592 5.18076 17.7316C5.36574 17.904 5.60916 17.9999 5.862 18H14.138C14.3908 17.9999 14.6343 17.904 14.8192 17.7316C15.0042 17.5592 15.117 17.3232 15.135 17.071L15.997 5ZM8 8C8.24493 8.00003 8.48134 8.08996 8.66437 8.25272C8.84741 8.41547 8.96434 8.63975 8.993 8.883L9 9V14C8.99972 14.2549 8.90212 14.5 8.72715 14.6854C8.55218 14.8707 8.31305 14.9822 8.05861 14.9972C7.80416 15.0121 7.55362 14.9293 7.35817 14.7657C7.16271 14.6021 7.0371 14.3701 7.007 14.117L7 14V9C7 8.73478 7.10536 8.48043 7.29289 8.29289C7.48043 8.10536 7.73478 8 8 8ZM12 8C12.2652 8 12.5196 8.10536 12.7071 8.29289C12.8946 8.48043 13 8.73478 13 9V14C13 14.2652 12.8946 14.5196 12.7071 14.7071C12.5196 14.8946 12.2652 15 12 15C11.7348 15 11.4804 14.8946 11.2929 14.7071C11.1054 14.5196 11 14.2652 11 14V9C11 8.73478 11.1054 8.48043 11.2929 8.29289C11.4804 8.10536 11.7348 8 12 8ZM12.28 2H7.72L7.387 3H12.613L12.279 2H12.28Z" fill="currentColor"/>
</svg>
