<svg width="20" height="20" viewBox="0 0 20 20" fill="none" xmlns="http://www.w3.org/2000/svg">
<path fill-rule="evenodd" clip-rule="evenodd" d="M1.42857 0H14.2857C14.6642 0.00113052 15.027 0.152003 15.2946 0.419668C15.5623 0.687332 15.7132 1.05004 15.7143 1.42857V9.28571H14.2857V1.42857H1.42857V18.5714H7.14286V20H1.42857C1.05004 19.9989 0.687332 19.848 0.419668 19.5803C0.152003 19.3127 0.00113052 18.95 0 18.5714V1.42857C0.00113052 1.05004 0.152003 0.687332 0.419668 0.419668C0.687332 0.152003 1.05004 0.00113052 1.42857 0ZM19.8407 15.3421C19.3994 14.2178 18.6378 13.2476 17.6503 12.552C16.6629 11.8563 15.493 11.4657 14.2857 11.4286C13.0784 11.4657 11.9085 11.8563 10.9211 12.552C9.93364 13.2476 9.17206 14.2178 8.73071 15.3421L8.57143 15.7143L8.73071 16.0864C9.17206 17.2108 9.93364 18.1809 10.9211 18.8766C11.9085 19.5723 13.0784 19.9629 14.2857 20C15.493 19.9629 16.6629 19.5723 17.6503 18.8766C18.6378 18.1809 19.3994 17.2108 19.8407 16.0864L20 15.7143L19.8407 15.3421ZM14.2857 18.5714C13.7206 18.5714 13.1682 18.4039 12.6984 18.0899C12.2285 17.776 11.8623 17.3297 11.6461 16.8077C11.4298 16.2856 11.3732 15.7111 11.4835 15.1569C11.5937 14.6027 11.8658 14.0936 12.2654 13.694C12.665 13.2944 13.1741 13.0223 13.7283 12.912C14.2825 12.8018 14.857 12.8584 15.3791 13.0746C15.9012 13.2909 16.3474 13.6571 16.6613 14.1269C16.9753 14.5968 17.1429 15.1492 17.1429 15.7143C17.1419 16.4718 16.8406 17.1979 16.305 17.7335C15.7694 18.2692 15.0432 18.5705 14.2857 18.5714ZM3.57143 10.7143H7.14286V12.1429H3.57143V10.7143ZM3.57143 7.14286H12.1429V8.57143H3.57143V7.14286ZM3.57143 3.57143H12.1429V5H3.57143V3.57143ZM14.2857 17.1429C15.0747 17.1429 15.7143 16.5033 15.7143 15.7143C15.7143 14.9253 15.0747 14.2857 14.2857 14.2857C13.4967 14.2857 12.8571 14.9253 12.8571 15.7143C12.8571 16.5033 13.4967 17.1429 14.2857 17.1429Z" fill="currentColor"/>
</svg>
