<svg width="20" height="20" viewBox="0 0 20 20" fill="none" xmlns="http://www.w3.org/2000/svg">
<path d="M3.69883 1.51472C3.4053 1.22118 3.00718 1.05628 2.59206 1.05628C2.17693 1.05628 1.77882 1.22118 1.48528 1.51472C1.19175 1.80825 1.02684 2.20637 1.02684 2.62149C1.02684 3.03662 1.19175 3.43473 1.48528 3.72827L7.75701 10L1.48528 16.2717C1.19175 16.5653 1.02684 16.9634 1.02684 17.3785C1.02684 17.7936 1.19175 18.1917 1.48528 18.4853C1.77882 18.7788 2.17693 18.9437 2.59206 18.9437C3.00718 18.9437 3.4053 18.7788 3.69883 18.4853L9.97056 12.2136L16.2423 18.4853C16.5358 18.7788 16.9339 18.9437 17.3491 18.9437C17.7642 18.9437 18.1623 18.7788 18.4558 18.4853C18.7494 18.1917 18.9143 17.7936 18.9143 17.3785C18.9143 16.9634 18.7494 16.5653 18.4558 16.2717L12.1841 10L18.4558 3.72827C18.7494 3.43473 18.9143 3.03662 18.9143 2.62149C18.9143 2.20637 18.7494 1.80825 18.4558 1.51472C18.1623 1.22118 17.7642 1.05628 17.3491 1.05628C16.9339 1.05628 16.5358 1.22118 16.2423 1.51472L9.97056 7.78645L3.69883 1.51472Z" fill="currentColor"/>
</svg>
