<svg width="20" height="20" viewBox="0 0 20 20" fill="none" xmlns="http://www.w3.org/2000/svg">
<path d="M10 0C8.02219 0 6.08879 0.58649 4.4443 1.6853C2.79981 2.78412 1.51809 4.3459 0.761209 6.17316C0.00433286 8.00043 -0.1937 10.0111 0.192152 11.9509C0.578004 13.8907 1.53041 15.6725 2.92894 17.0711C4.32746 18.4696 6.10929 19.422 8.0491 19.8078C9.98891 20.1937 11.9996 19.9957 13.8268 19.2388C15.6541 18.4819 17.2159 17.2002 18.3147 15.5557C19.4135 13.9112 20 11.9778 20 10C20 7.34783 18.9464 4.8043 17.0711 2.92893C15.1957 1.05357 12.6522 0 10 0V0ZM8.33334 4.29167C8.33334 3.96203 8.43109 3.6398 8.61422 3.36572C8.79736 3.09163 9.05765 2.87801 9.3622 2.75187C9.66674 2.62572 10.0019 2.59272 10.3252 2.65702C10.6485 2.72133 10.9454 2.88007 11.1785 3.11315C11.4116 3.34624 11.5703 3.64321 11.6346 3.96652C11.699 4.28982 11.6659 4.62493 11.5398 4.92947C11.4137 5.23402 11.2 5.49431 10.926 5.67745C10.6519 5.86058 10.3296 5.95833 10 5.95833C9.77422 5.96964 9.5485 5.93489 9.33658 5.85621C9.12465 5.77752 8.93094 5.65655 8.76724 5.50065C8.60354 5.34474 8.47327 5.15716 8.38435 4.94932C8.29543 4.74149 8.24972 4.51773 8.25 4.29167H8.33334ZM14.1667 15C14.1667 15.221 14.0789 15.433 13.9226 15.5893C13.7663 15.7455 13.5543 15.8333 13.3333 15.8333H7.5C7.27899 15.8333 7.06703 15.7455 6.91075 15.5893C6.75447 15.433 6.66667 15.221 6.66667 15C6.66667 14.779 6.75447 14.567 6.91075 14.4107C7.06703 14.2545 7.27899 14.1667 7.5 14.1667H9.16667V9.16667H8.33334C8.11232 9.16667 7.90036 9.07887 7.74408 8.92259C7.5878 8.76631 7.5 8.55435 7.5 8.33333C7.5 8.11232 7.5878 7.90036 7.74408 7.74408C7.90036 7.5878 8.11232 7.5 8.33334 7.5H11.6667V14.1667H13.3333C13.5543 14.1667 13.7663 14.2545 13.9226 14.4107C14.0789 14.567 14.1667 14.779 14.1667 15Z" fill="currentColor"/>
</svg>
