<svg width="20" height="20" viewBox="0 0 20 20" fill="none" xmlns="http://www.w3.org/2000/svg">
<path d="M11.3043 1.30435C11.3043 0.958413 11.1669 0.626647 10.9223 0.382034C10.6777 0.137422 10.3459 0 10 0C9.65407 0 9.3223 0.137422 9.07769 0.382034C8.83307 0.626647 8.69565 0.958413 8.69565 1.30435V8.69565H1.30435C0.958413 8.69565 0.626647 8.83307 0.382034 9.07769C0.137422 9.3223 0 9.65407 0 10C0 10.3459 0.137422 10.6777 0.382034 10.9223C0.626647 11.1669 0.958413 11.3043 1.30435 11.3043H8.69565V18.6957C8.69565 19.0416 8.83307 19.3734 9.07769 19.618C9.3223 19.8626 9.65407 20 10 20C10.3459 20 10.6777 19.8626 10.9223 19.618C11.1669 19.3734 11.3043 19.0416 11.3043 18.6957V11.3043H18.6957C19.0416 11.3043 19.3734 11.1669 19.618 10.9223C19.8626 10.6777 20 10.3459 20 10C20 9.65407 19.8626 9.3223 19.618 9.07769C19.3734 8.83307 19.0416 8.69565 18.6957 8.69565H11.3043V1.30435Z" fill="currentColor"/>
</svg>
