<svg version="1.0" xmlns="http://www.w3.org/2000/svg"
 width="512.000000pt" height="512.000000pt" viewBox="0 0 512.000000 512.000000"
 preserveAspectRatio="xMidYMid meet">

<g transform="translate(0.000000,512.000000) scale(0.100000,-0.100000)"
fill="#000000" stroke="none">
<path d="M2460 4458 c-36 -18 -51 -35 -74 -81 -55 -108 -36 -274 59 -513 l45
-112 -39 -138 c-69 -244 -155 -483 -281 -785 -23 -54 -25 -56 -129 -109 -219
-113 -371 -234 -417 -334 -49 -104 -21 -211 71 -273 116 -80 228 -16 381 217
34 52 88 147 119 210 l58 116 56 23 c226 94 670 231 747 231 8 0 47 -27 86
-61 186 -155 361 -182 473 -71 52 51 89 133 82 182 -18 137 -184 175 -543 124
l-41 -6 -71 83 c-125 148 -259 348 -351 526 l-43 82 33 163 c25 126 33 190 33
283 1 135 -4 152 -73 223 -37 38 -46 42 -89 42 -30 0 -65 -9 -92 -22z m103
-173 c22 -46 22 -146 1 -209 -14 -40 -18 -45 -32 -34 -23 20 -52 89 -52 128 0
60 35 150 58 150 5 0 16 -16 25 -35z m184 -981 c33 -49 90 -127 127 -174 58
-73 65 -86 49 -92 -10 -3 -85 -25 -168 -48 -82 -23 -205 -62 -274 -86 -68 -24
-126 -42 -129 -40 -2 3 23 74 56 158 33 84 85 232 116 328 32 96 59 181 62
189 3 9 24 -17 53 -66 27 -44 75 -120 108 -169z m787 -357 c18 -13 17 -15 -11
-47 -25 -28 -38 -34 -84 -38 -52 -4 -57 -2 -109 39 -53 42 -54 43 -30 50 47
13 215 10 234 -4z m-1530 -454 c-74 -131 -185 -263 -219 -263 -8 0 -21 14 -30
30 -19 37 -8 64 55 128 38 40 195 151 213 152 4 0 -4 -21 -19 -47z"/>
<path d="M600 825 c0 -791 -2 -761 57 -801 27 -18 78 -19 1903 -19 1825 0
1876 1 1903 19 59 40 57 10 57 801 l0 725 -1960 0 -1960 0 0 -725z m1235 350
c76 -28 159 -115 181 -191 24 -82 8 -178 -41 -249 -61 -89 -133 -121 -292
-132 l-93 -6 0 -164 0 -163 -75 0 -75 0 0 466 0 466 173 -4 c134 -4 183 -9
222 -23z m740 15 c194 -28 339 -175 368 -375 21 -145 -33 -342 -117 -427 -94
-96 -176 -118 -435 -118 l-191 0 0 465 0 465 153 0 c83 0 184 -5 222 -10z
m1165 -50 l0 -60 -210 0 -210 0 0 -140 0 -140 190 0 190 0 0 -55 0 -55 -190 0
-190 0 0 -210 0 -210 -80 0 -80 0 0 465 0 465 290 0 290 0 0 -60z"/>
<path d="M1590 900 l0 -182 95 4 c105 4 134 18 169 77 27 47 27 155 0 201 -31
54 -74 73 -176 78 l-88 4 0 -182z"/>
<path d="M2360 735 l0 -345 101 0 c130 0 172 13 230 70 62 62 80 117 86 261 6
134 -7 190 -58 252 -56 68 -168 107 -306 107 l-53 0 0 -345z"/>
</g>
</svg>
